<svg id="Layer_1" data-name="Layer 1" xmlns="http://www.w3.org/2000/svg" viewBox="0 0 363.64 331.25"><defs><style>.cls-1{fill:#ed323d;}</style></defs><title>Untitled-1</title><polygon class="cls-1" points="92.89 166.11 92.89 201.04 160.21 140.95 0 0 0 83.66 92.89 166.11"/><polygon class="cls-1" points="363.64 292.57 363.64 0 300.8 56.39 300.67 236.39 363.64 292.57"/><polygon class="cls-1" points="92.89 331.25 155.85 331.25 155.85 268.65 178.03 250.65 268.73 331.25 362.83 331.25 223.84 207.57 271.18 165.73 271.18 81.7 92.89 240.42 92.89 331.25"/><polygon class="cls-1" points="62.97 179.24 0 123.04 0 331.25 63.11 331.25 62.97 179.24"/><polygon class="cls-1" points="271.18 165.73 271.18 165.73 229.36 202.69 271.18 165.73"/></svg>